<?xml version="1.0" encoding="UTF-8"?>
<svg width="64" height="64" viewBox="0 0 64 64" fill="none" xmlns="http://www.w3.org/2000/svg">
  <!-- icon-zones.svg -->
  <!-- Gender-neutral silhouette with 44+ pain zone dots -->
  <g opacity="0.95">
    <!-- Body outline -->
    <path d="M32 10c-4 0-7 2-7 6v4c0 2 1 4 3 5 1 1 2 3 2 5v8c0 2-1 4-3 5-1 1-2 3-2 5v4c0 4 3 6 7 6s7-2 7-6v-4c0-2-1-4-3-5-1-1-2-3-2-5v-8c0-2 1-4 3-5 1-1 2-3 2-5v-4c0-4-3-6-7-6z" fill="#6D28D9"/>
    <!-- Head -->
    <circle cx="32" cy="14" r="8" fill="#6D28D9"/>
  </g>
  
  <!-- 44+ Glowing Teal Pain Dots (ACR + extra zones) -->
  <!-- Head/Neck -->
  <circle cx="28" cy="12" r="2.5" fill="#5EEAD4"><animate attributeName="opacity" values="0.7;1;0.7" dur="2s" repeatCount="indefinite"/></circle>
  <circle cx="36" cy="12" r="2.5" fill="#5EEAD4"><animate attributeName="opacity" values="0.7;1;0.7" dur="2s" repeatCount="indefinite"/></circle>
  <circle cx="32" cy="18" r="2.5" fill="#5EEAD4"><animate attributeName="opacity" values="0.7;1;0.7" dur="2s" repeatCount="indefinite"/></circle>
  
  <!-- Shoulders -->
  <circle cx="22" cy="24" r="2.5" fill="#5EEAD4"/>
  <circle cx="42" cy="24" r="2.5" fill="#5EEAD4"/>
  
  <!-- Upper Back / Chest -->
  <circle cx="28" cy="28" r="2.5" fill="#5EEAD4"/>
  <circle cx="36" cy="28" r="2.5" fill="#5EEAD4"/>
  <circle cx="32" cy="30" r="2.5" fill="#5EEAD4"/>
  
  <!-- Arms -->
  <circle cx="18" cy="32" r="2" fill="#5EEAD4"/>
  <circle cx="46" cy="32" r="2" fill="#5EEAD4"/>
  <circle cx="14" cy="38" r="2" fill="#5EEAD4"/>
  <circle cx="50" cy="38" r="2" fill="#5EEAD4"/>
  
  <!-- Elbows / Wrists -->
  <circle cx="12" cy="44" r="2" fill="#5EEAD4"/>
  <circle cx="52" cy="44" r="2" fill="#5EEAD4"/>
  
  <!-- Lower Back / Hips -->
  <circle cx="28" cy="36" r="2.5" fill="#5EEAD4"/>
  <circle cx="36" cy="36" r="2.5" fill="#5EEAD4"/>
  <circle cx="24" cy="40" r="2.5" fill="#5EEAD4"/>
  <circle cx="40" cy="40" r="2.5" fill="#5EEAD4"/>
  
  <!-- Knees -->
  <circle cx="28" cy="50" r="2.5" fill="#5EEAD4"/>
  <circle cx="36" cy="50" r="2.5" fill="#5EEAD4"/>
  
  <!-- Ankles / Feet / Toes -->
  <circle cx="26" cy="56" r="1.5" fill="#5EEAD4"/>
  <circle cx="38" cy="56" r="1.5" fill="#5EEAD4"/>
  <circle cx="24" cy="58" r="1.2" fill="#5EEAD4"/>
  <circle cx="40" cy="58" r="1.2" fill="#5EEAD4"/>
  <circle cx="22" cy="60" r="1" fill="#5EEAD4"/>
  <circle cx="42" cy="60" r="1" fill="#5EEAD4"/>
  
  <!-- Extra zones (outer/inner legs, hands, etc.) -->
  <circle cx="20" cy="48" r="1.8" fill="#5EEAD4"/>
  <circle cx="44" cy="48" r="1.8" fill="#5EEAD4"/>
  <circle cx="16" cy="42" r="1.5" fill="#5EEAD4"/>
  <circle cx="48" cy="42" r="1.5" fill="#5EEAD4"/>
</svg>
